<?xml version="1.0" encoding="UTF-8"?>
<svg id="Calque_1" data-name="Calque 1" xmlns="http://www.w3.org/2000/svg" viewBox="20 185 400 420">
  <path d="M66.26,533.75c27.73-63.78,112.02-274.04,112.02-312.86,0-7.77-1.08-13.32-3.88-17.21,21.09-3.32,49.96-4.99,67.12-4.99,21.09,0,27.19,4.45,32.75,19.99l104.84,289.55c11.11,32.21,23.85,62.69,37.17,81.57h-117.03c6.64-15,6.64-38.3-4.47-70.46l-23.85-67.12h-118.7c-.54,38.85,7.23,94.85,3.88,113.73-1.08,18.84-12.74,23.85-36.59,23.85H35.18c10.52-14.45,19.96-29.95,31.08-56.05ZM266.49,439.48l-75.43-213.6c-22.18,68.79-39.39,145.9-38.3,213.6h113.73Z" style="fill: #020202;"/>
  </svg>